# Blender 3.6.2
# www.blender.org
mtllib gato.mtl
o Cube
v -0.316053 0.352031 0.163360
v -0.316053 0.678752 0.163360
v -0.316053 0.352031 -0.163360
v -0.316053 0.678752 -0.163360
v 0.316053 0.395764 0.119628
v 0.316053 0.635019 0.119628
v 0.316053 0.447628 -0.119628
v 0.316053 0.686883 -0.119628
v 0.182040 0.352031 -0.163360
v -0.182040 0.352031 -0.163360
v -0.182040 0.678752 -0.163360
v 0.182040 0.678752 -0.163360
v -0.182040 0.352031 0.163360
v 0.182040 0.352031 0.163360
v 0.182040 0.678752 0.163360
v -0.182040 0.678752 0.163360
v -0.316053 0.352031 -0.054453
v -0.316053 0.352031 0.054453
v -0.316053 0.678752 0.054453
v -0.316053 0.678752 -0.054453
v 0.316053 0.447628 0.054453
v 0.316053 0.447628 -0.054453
v 0.316053 0.686883 -0.054453
v 0.316053 0.686883 0.054453
v 0.182040 0.678752 -0.054453
v 0.182040 0.678752 0.054453
v -0.182040 0.678752 -0.054453
v -0.182040 0.678752 0.054453
v -0.182040 0.352031 -0.054453
v -0.182040 0.352031 0.054453
v 0.182040 0.352031 -0.054453
v 0.182040 0.352031 0.054453
v -0.316053 0.028977 0.054453
v -0.316053 0.028977 0.163360
v -0.182040 0.028977 -0.163360
v -0.316053 0.028977 -0.163360
v 0.316053 0.028977 -0.054453
v 0.316053 0.028977 -0.163360
v 0.182040 0.028977 0.163360
v 0.316053 0.028977 0.163360
v 0.182040 0.028977 -0.163360
v -0.182040 0.028977 0.163360
v -0.182040 0.028977 0.054453
v 0.182040 0.028977 0.054453
v -0.316053 0.028977 -0.054453
v 0.316053 0.028977 0.054453
v -0.182040 0.028977 -0.054453
v 0.182040 0.028977 -0.054453
v -0.316053 0.515392 0.163360
v -0.316053 0.515392 -0.163360
v 0.316053 0.567255 -0.119628
v 0.316053 0.515392 0.119628
v 0.182040 0.515392 0.163360
v -0.182040 0.515392 0.163360
v -0.182040 0.515392 -0.163360
v 0.182040 0.515392 -0.163360
v 0.368951 0.363718 0.092648
v 0.368951 0.363718 -0.092648
v -0.316053 0.515392 0.054453
v -0.316053 0.515392 -0.054453
v -0.556044 0.678752 0.054453
v -0.556044 0.678752 -0.054453
v -0.556044 0.515392 0.054453
v -0.556044 0.515392 -0.054453
v 0.316053 0.515392 -0.163360
v 0.316053 0.352031 -0.163360
v 0.316053 0.352031 -0.054453
v 0.316053 0.678752 0.054453
v 0.316053 0.678752 0.163360
v 0.316053 0.515392 0.163360
v 0.316053 0.352031 0.163360
v 0.316053 0.352031 0.054453
v 0.316053 0.678752 -0.163360
v 0.316053 0.678752 -0.054453
v 0.368951 0.567255 -0.054453
v 0.368951 0.447628 -0.054453
v 0.368951 0.567255 0.054453
v 0.368951 0.447628 0.054453
v 0.368951 0.686883 -0.054453
v 0.368951 0.686883 0.054453
v 0.368951 0.567255 -0.119628
v 0.368951 0.567255 0.119628
v 0.368951 0.447628 -0.119628
v 0.368951 0.686883 0.119628
v 0.368951 0.447628 0.119628
v 0.368951 0.686883 -0.119628
v 0.368951 0.770793 -0.092648
v 0.368951 0.770793 0.092648
v 0.368951 0.567255 -0.203538
v 0.368951 0.567255 0.203538
v 0.368951 0.363718 -0.203538
v 0.368951 0.770793 0.203538
v 0.368951 0.363718 0.203538
v 0.368951 0.770793 -0.203538
v 0.658187 0.363718 0.092648
v 0.658187 0.363718 -0.092648
v 0.658187 0.770793 -0.092648
v 0.658187 0.770793 0.092648
v 0.658187 0.567255 -0.203538
v 0.658187 0.567255 0.203538
v 0.658187 0.363718 -0.203538
v 0.658187 0.770793 0.203538
v 0.658187 0.363718 0.203538
v 0.658187 0.770793 -0.203538
v 0.561775 0.770793 0.092648
v 0.465363 0.770793 0.092648
v 0.465363 0.770793 0.203538
v 0.561775 0.770793 0.203538
v 0.465363 0.567255 0.203538
v 0.561775 0.567255 0.203538
v 0.561775 0.770793 -0.203538
v 0.465363 0.770793 -0.203538
v 0.465363 0.770793 -0.092648
v 0.561775 0.770793 -0.092648
v 0.465363 0.363718 0.203538
v 0.561775 0.363718 0.203538
v 0.561775 0.363718 -0.203538
v 0.465363 0.363718 -0.203538
v 0.465363 0.567255 -0.203538
v 0.561775 0.567255 -0.203538
v 0.465363 0.363718 0.092648
v 0.561775 0.363718 0.092648
v 0.561775 0.363718 -0.092648
v 0.465363 0.363718 -0.092648
v 0.561775 0.865421 0.092648
v 0.465363 0.865421 0.092648
v 0.465363 0.865421 0.203538
v 0.561775 0.865421 0.203538
v 0.561775 0.865421 -0.203538
v 0.465363 0.865421 -0.203538
v 0.465363 0.865421 -0.092648
v 0.561775 0.865421 -0.092648
v 0.658187 0.567255 -0.092649
v 0.658187 0.567255 0.092648
v 0.707738 0.407213 0.060015
v 0.707738 0.407213 -0.060015
v 0.707738 0.545483 0.060015
v 0.707738 0.545483 -0.060015
v 0.707738 0.363718 0.092648
v 0.707738 0.363718 -0.092648
v 0.707738 0.567255 0.092648
v 0.707738 0.567255 -0.092649
v 0.772015 0.407213 0.060015
v 0.772015 0.407213 -0.060015
v 0.772015 0.545483 0.060015
v 0.772015 0.545483 -0.060015
vn -1.0000 -0.0000 -0.0000
vn -0.0000 -0.0000 -1.0000
vn -0.0000 1.0000 -0.0000
vn -0.0000 -0.0000 1.0000
vn -0.0000 -1.0000 -0.0000
vn -0.4145 0.8456 0.3364
vn 1.0000 -0.0000 -0.0000
vn 0.4145 -0.8456 -0.3364
vt 0.500000 0.166667
vt 0.625000 0.166667
vt 0.625000 0.250000
vt 0.500000 0.250000
vt 0.500000 0.416667
vt 0.625000 0.416667
vt 0.625000 0.500000
vt 0.500000 0.500000
vt 0.591537 0.533463
vt 0.591537 0.583333
vt 0.500000 0.916667
vt 0.625000 0.916667
vt 0.625000 1.000000
vt 0.500000 1.000000
vt 0.375000 0.583333
vt 0.291667 0.583333
vt 0.791667 0.666667
vt 0.875000 0.666667
vt 0.875000 0.750000
vt 0.791667 0.750000
vt 0.625000 0.666667
vt 0.708333 0.666667
vt 0.708333 0.750000
vt 0.625000 0.750000
vt 0.208333 0.583333
vt 0.125000 0.583333
vt 0.208333 0.666667
vt 0.291667 0.666667
vt 0.291667 0.750000
vt 0.208333 0.750000
vt 0.500000 0.750000
vt 0.625000 0.833333
vt 0.500000 0.833333
vt 0.625000 0.333333
vt 0.500000 0.333333
vt 0.208333 0.500000
vt 0.291667 0.500000
vt 0.375000 0.916667
vt 0.375000 1.000000
vt 0.125000 0.666667
vt 0.708333 0.500000
vt 0.791667 0.500000
vt 0.791667 0.583333
vt 0.708333 0.583333
vt 0.625000 0.583333
vt 0.875000 0.500000
vt 0.875000 0.583333
vt 0.375000 0.666667
vt 0.591537 0.716537
vt 0.500000 0.716537
vt 0.591537 0.666667
vt 0.500000 0.000000
vt 0.625000 0.000000
vt 0.625000 0.083333
vt 0.500000 0.083333
vt 0.375000 0.750000
vt 0.125000 0.750000
vt 0.125000 0.500000
vt 0.375000 0.500000
vt 0.375000 0.833333
vt 0.375000 0.250000
vt 0.375000 0.333333
vt 0.375000 0.416667
vt 0.375000 0.166667
vt 0.375000 0.000000
vt 0.375000 0.083333
vt 0.408463 0.666667
vt 0.408463 0.583333
vt 0.500000 0.533463
vt 0.408463 0.533463
vt 0.408463 0.716537
vt 0.500000 0.666667
vt 0.500000 0.583333
vt 0.591537 0.716537
vt 0.408463 0.716537
vt 0.500000 0.583333
vt 0.485324 0.651990
vt 0.423140 0.651990
vt 0.500000 0.666667
vt 0.423140 0.598010
vt 0.485324 0.598010
s 0
f 60/1/1 20/2/1 4/3/1 50/4/1
f 56/5/2 12/6/2 73/7/2 65/8/2
f 8/9/3 23/10/3 79/10/3 86/9/3
f 54/11/4 16/12/4 2/13/4 49/14/4
f 67/15/4 31/16/4 48/16/4 37/15/4
f 28/17/3 19/18/3 2/19/3 16/20/3
f 68/21/3 26/22/3 15/23/3 69/24/3
f 26/22/3 28/17/3 16/20/3 15/23/3
f 29/25/4 17/26/4 45/26/4 47/25/4
f 30/27/5 32/28/5 14/29/5 13/30/5
f 70/31/4 69/24/4 15/32/4 53/33/4
f 53/33/4 15/32/4 16/12/4 54/11/4
f 50/4/2 4/3/2 11/34/2 55/35/2
f 55/35/2 11/34/2 12/6/2 56/5/2
f 10/36/5 9/37/5 31/16/5 29/25/5
f 29/25/5 31/16/5 32/28/5 30/27/5
f 13/38/4 1/39/4 34/39/4 42/38/4
f 17/26/5 29/25/5 30/27/5 18/40/5
f 12/41/3 11/42/3 27/43/3 25/44/3
f 25/44/3 27/43/3 28/17/3 26/22/3
f 73/7/3 12/41/3 25/44/3 74/45/3
f 74/45/3 25/44/3 26/22/3 68/21/3
f 11/42/3 4/46/3 20/47/3 27/43/3
f 27/43/3 20/47/3 19/18/3 28/17/3
f 14/29/1 32/28/1 44/28/1 39/29/1
f 31/16/5 67/15/5 72/48/5 32/28/5
f 6/49/4 52/50/4 82/50/4 84/49/4
f 24/51/6 6/49/6 84/49/6 80/51/6
f 49/52/1 2/53/1 19/54/1 59/55/1
f 20/2/2 60/1/2 64/1/2 62/2/2
f 44/28/5 46/48/5 40/56/5 39/29/5
f 33/40/5 43/27/5 42/30/5 34/57/5
f 36/58/5 35/36/5 47/25/5 45/26/5
f 41/37/5 38/59/5 37/15/5 48/16/5
f 72/48/7 71/56/7 40/56/7 46/48/7
f 18/40/2 30/27/2 43/27/2 33/40/2
f 71/56/4 14/60/4 39/60/4 40/56/4
f 10/36/7 29/25/7 47/25/7 35/36/7
f 32/28/2 72/48/2 46/48/2 44/28/2
f 3/61/2 10/62/2 35/62/2 36/61/2
f 9/63/2 66/59/2 38/59/2 41/63/2
f 31/16/1 9/37/1 41/37/1 48/16/1
f 17/64/1 3/61/1 36/61/1 45/64/1
f 66/59/7 67/15/7 37/15/7 38/59/7
f 30/27/7 13/30/7 42/30/7 43/27/7
f 1/65/1 18/66/1 33/66/1 34/65/1
f 18/66/1 59/55/1 60/1/1 17/64/1
f 1/65/1 49/52/1 59/55/1 18/66/1
f 21/67/5 22/68/5 76/68/5 78/67/5
f 51/69/2 8/9/2 86/9/2 81/69/2
f 10/62/2 55/35/2 56/5/2 9/63/2
f 3/61/2 50/4/2 55/35/2 10/62/2
f 14/60/4 53/33/4 54/11/4 13/38/4
f 71/56/4 70/31/4 53/33/4 14/60/4
f 13/38/4 54/11/4 49/14/4 1/39/4
f 22/68/5 7/70/5 83/70/5 76/68/5
f 9/63/2 56/5/2 65/8/2 66/59/2
f 17/64/1 60/1/1 50/4/1 3/61/1
f 63/55/1 61/54/1 62/2/1 64/1/1
f 19/18/3 20/47/3 62/47/3 61/18/3
f 60/1/5 59/55/5 63/55/5 64/1/5
f 59/55/4 19/54/4 61/54/4 63/55/4
f 51/69/7 7/70/7 66/59/7 65/8/7
f 7/70/7 22/68/7 67/15/7 66/59/7
f 6/49/7 24/51/7 68/21/7 69/24/7
f 5/71/7 52/50/7 70/31/7 71/56/7
f 21/67/7 5/71/7 71/56/7 72/48/7
f 22/68/7 21/67/7 72/48/7 67/15/7
f 23/10/1 8/9/1 73/7/1 74/45/1
f 24/51/1 23/10/1 74/45/1 68/21/1
f 8/9/7 51/69/7 65/8/7 73/7/7
f 52/50/7 6/49/7 69/24/7 70/31/7
f 77/72/7 80/51/7 84/49/7 82/50/7
f 81/69/7 86/9/7 79/10/7 75/73/7
f 75/73/7 79/10/7 80/51/7 77/72/7
f 76/68/7 75/73/7 77/72/7 78/67/7
f 83/70/7 81/69/7 75/73/7 76/68/7
f 78/67/7 77/72/7 82/50/7 85/71/7
f 52/50/4 5/71/4 85/71/4 82/50/4
f 7/70/2 51/69/2 81/69/2 83/70/2
f 23/10/3 24/51/3 80/51/3 79/10/3
f 5/71/8 21/67/8 78/67/8 85/71/8
f 81/69/1 86/9/1 94/9/1 89/69/1
f 78/67/1 76/68/1 58/68/1 57/67/1
f 80/51/1 84/49/1 92/49/1 88/51/1
f 84/49/1 82/50/1 90/50/1 92/49/1
f 86/9/1 79/10/1 87/10/1 94/9/1
f 82/50/1 85/71/1 93/71/1 90/50/1
f 83/70/1 81/69/1 89/69/1 91/70/1
f 79/10/1 80/51/1 88/51/1 87/10/1
f 85/71/1 78/67/1 57/67/1 93/71/1
f 76/68/1 83/70/1 91/70/1 58/68/1
f 105/51/3 108/74/3 102/49/3 98/51/3
f 108/74/4 110/50/4 100/50/4 102/49/4
f 111/9/3 114/10/3 97/10/3 104/9/3
f 110/50/4 116/75/4 103/71/4 100/50/4
f 117/70/2 120/69/2 99/69/2 101/70/2
f 114/10/3 105/51/3 98/51/3 97/10/3
f 116/75/5 122/67/5 95/67/5 103/71/5
f 123/68/5 117/70/5 101/70/5 96/68/5
f 120/69/2 111/9/2 104/9/2 99/69/2
f 122/67/5 123/68/5 96/68/5 95/67/5
f 101/70/7 99/69/7 133/76/7 96/68/7
f 57/67/5 58/68/5 124/68/5 121/67/5
f 121/67/5 124/68/5 123/68/5 122/67/5
f 89/69/2 94/9/2 112/9/2 119/69/2
f 119/69/2 112/9/2 111/9/2 120/69/2
f 58/68/5 91/70/5 118/70/5 124/68/5
f 124/68/5 118/70/5 117/70/5 123/68/5
f 93/71/5 57/67/5 121/67/5 115/75/5
f 115/75/5 121/67/5 122/67/5 116/75/5
f 87/10/3 88/51/3 106/51/3 113/10/3
f 113/10/3 106/51/3 105/51/3 114/10/3
f 91/70/2 89/69/2 119/69/2 118/70/2
f 118/70/2 119/69/2 120/69/2 117/70/2
f 90/50/4 93/71/4 115/75/4 109/50/4
f 109/50/4 115/75/4 116/75/4 110/50/4
f 94/9/3 87/10/3 113/10/3 112/9/3
f 114/10/7 111/9/7 129/9/7 132/10/7
f 92/49/4 90/50/4 109/50/4 107/74/4
f 107/74/4 109/50/4 110/50/4 108/74/4
f 88/51/3 92/49/3 107/74/3 106/51/3
f 108/74/7 105/51/7 125/51/7 128/74/7
f 130/9/3 131/10/3 132/10/3 129/9/3
f 126/51/3 127/74/3 128/74/3 125/51/3
f 113/10/4 114/10/4 132/10/4 131/10/4
f 111/9/2 112/9/2 130/9/2 129/9/2
f 106/51/1 107/74/1 127/74/1 126/51/1
f 107/74/4 108/74/4 128/74/4 127/74/4
f 112/9/1 113/10/1 131/10/1 130/9/1
f 105/51/2 106/51/2 126/51/2 125/51/2
f 137/77/4 135/78/4 143/78/4 145/77/4
f 133/76/3 134/79/3 141/79/3 142/76/3
f 95/67/7 134/79/7 100/50/7 103/71/7
f 100/50/7 134/79/7 98/51/7 102/49/7
f 98/51/7 134/79/7 133/76/7 97/10/7
f 97/10/7 133/76/7 99/69/7 104/9/7
f 134/79/4 95/67/4 139/67/4 141/79/4
f 95/67/5 96/68/5 140/68/5 139/67/5
f 96/68/2 133/76/2 142/76/2 140/68/2
f 136/80/7 135/78/7 139/67/7 140/68/7
f 135/78/7 137/77/7 141/79/7 139/67/7
f 138/81/7 136/80/7 140/68/7 142/76/7
f 137/77/7 138/81/7 142/76/7 141/79/7
f 144/80/7 146/81/7 145/77/7 143/78/7
f 136/80/2 138/81/2 146/81/2 144/80/2
f 135/78/5 136/80/5 144/80/5 143/78/5
f 138/81/3 137/77/3 145/77/3 146/81/3
